<!DOCTYPE svg PUBLIC "-//W3C//DTD SVG 1.1//EN" "http://www.w3.org/Graphics/SVG/1.1/DTD/svg11.dtd">
<!-- Uploaded to: SVG Repo, www.svgrepo.com, Transformed by: SVG Repo Mixer Tools -->
<svg fill="#ffffff" width="64px" height="64px" viewBox="0 0 24 24" xmlns="http://www.w3.org/2000/svg">
<g id="SVGRepo_bgCarrier" stroke-width="0"/>
<g id="SVGRepo_tracerCarrier" stroke-linecap="round" stroke-linejoin="round"/>
<g id="SVGRepo_iconCarrier">
<path d="M6.5,1A3.5,3.5,0,1,0,10,4.5,3.5,3.5,0,0,0,6.5,1Zm0,5A1.5,1.5,0,1,1,8,4.5,1.5,1.5,0,0,1,6.5,6ZM13,10v4h7a1,1,0,0,1,0,2H13v6a1,1,0,0,1-2,0V9a1,1,0,0,1,1-1h8a1,1,0,0,1,0,2Z"/>
</g>
</svg>