<!DOCTYPE svg PUBLIC "-//W3C//DTD SVG 1.1//EN" "http://www.w3.org/Graphics/SVG/1.1/DTD/svg11.dtd">
<!-- Uploaded to: SVG Repo, www.svgrepo.com, Transformed by: SVG Repo Mixer Tools -->
<svg fill="#ddddddad" width="64px" height="64px" viewBox="0 0 46.00 46.00" xmlns="http://www.w3.org/2000/svg" stroke="#ddddddad" stroke-width="0.00046">
<g id="SVGRepo_bgCarrier" stroke-width="0"/>
<g id="SVGRepo_tracerCarrier" stroke-linecap="round" stroke-linejoin="round"/>
<g id="SVGRepo_iconCarrier"> <path id="_46.Calendar" data-name="46.Calendar" d="M43,43H5a4,4,0,0,1-4-4V9A4,4,0,0,1,5,5H43a4,4,0,0,1,4,4V39A4,4,0,0,1,43,43ZM45,9a2,2,0,0,0-2-2H5A2,2,0,0,0,3,9v6H45Zm0,8H3V39a2,2,0,0,0,2,2H43a2,2,0,0,0,2-2ZM41,31H39a1,1,0,0,1-1-1V28a1,1,0,0,1,1-1h2a1,1,0,0,1,1,1v2A1,1,0,0,1,41,31Zm0-7H39a1,1,0,0,1-1-1V21a1,1,0,0,1,1-1h2a1,1,0,0,1,1,1v2A1,1,0,0,1,41,24Zm-8,7H31a1,1,0,0,1-1-1V28a1,1,0,0,1,1-1h2a1,1,0,0,1,1,1v2A1,1,0,0,1,33,31Zm0-7H31a1,1,0,0,1-1-1V21a1,1,0,0,1,1-1h2a1,1,0,0,1,1,1v2A1,1,0,0,1,33,24Zm-8,7H23a1,1,0,0,1-1-1V28a1,1,0,0,1,1-1h2a1,1,0,0,1,1,1v2A1,1,0,0,1,25,31Zm0-7H23a1,1,0,0,1-1-1V21a1,1,0,0,1,1-1h2a1,1,0,0,1,1,1v2A1,1,0,0,1,25,24ZM17,38H15a1,1,0,0,1-1-1V35a1,1,0,0,1,1-1h2a1,1,0,0,1,1,1v2A1,1,0,0,1,17,38Zm0-7H15a1,1,0,0,1-1-1V28a1,1,0,0,1,1-1h2a1,1,0,0,1,1,1v2A1,1,0,0,1,17,31Zm0-7H15a1,1,0,0,1-1-1V21a1,1,0,0,1,1-1h2a1,1,0,0,1,1,1v2A1,1,0,0,1,17,24ZM9,38H7a1,1,0,0,1-1-1V35a1,1,0,0,1,1-1H9a1,1,0,0,1,1,1v2A1,1,0,0,1,9,38Zm0-7H7a1,1,0,0,1-1-1V28a1,1,0,0,1,1-1H9a1,1,0,0,1,1,1v2A1,1,0,0,1,9,31Zm14,3h2a1,1,0,0,1,1,1v2a1,1,0,0,1-1,1H23a1,1,0,0,1-1-1V35A1,1,0,0,1,23,34Z" transform="translate(-1 -5)" fill-rule="evenodd"/> </g>
</svg>